<svg width="34" height="32" viewBox="0 0 34 32" fill="none" xmlns="http://www.w3.org/2000/svg">
<rect width="34" height="32" fill="black"/>
<path d="M12.384 28.36C11.136 28.36 10.016 28.168 9.024 27.784C8.032 27.4 7.192 26.84 6.504 26.104C5.816 25.352 5.288 24.44 4.92 23.368C4.552 22.296 4.368 21.064 4.368 19.672C4.368 18.28 4.576 17.048 4.992 15.976C5.424 14.904 6.008 14 6.744 13.264C7.48 12.512 8.344 11.944 9.336 11.56C10.328 11.176 11.392 10.984 12.528 10.984C13.216 10.984 13.84 11.04 14.4 11.152C14.96 11.248 15.448 11.36 15.864 11.488C16.28 11.616 16.624 11.752 16.896 11.896C17.168 12.04 17.36 12.144 17.472 12.208L16.584 14.68C16.2 14.44 15.648 14.216 14.928 14.008C14.224 13.784 13.456 13.672 12.624 13.672C11.904 13.672 11.232 13.8 10.608 14.056C9.984 14.296 9.44 14.664 8.976 15.16C8.528 15.656 8.176 16.28 7.92 17.032C7.664 17.784 7.536 18.656 7.536 19.648C7.536 20.528 7.632 21.336 7.824 22.072C8.032 22.808 8.344 23.448 8.76 23.992C9.176 24.52 9.704 24.936 10.344 25.24C10.984 25.528 11.752 25.672 12.648 25.672C13.72 25.672 14.592 25.568 15.264 25.36C15.936 25.136 16.456 24.928 16.824 24.736L17.64 27.208C17.448 27.336 17.184 27.464 16.848 27.592C16.528 27.72 16.144 27.848 15.696 27.976C15.248 28.088 14.744 28.176 14.184 28.24C13.624 28.32 13.024 28.36 12.384 28.36ZM20.1527 28V9.856L23.0567 9.376V15.592C23.3767 15.48 23.7447 15.384 24.1607 15.304C24.5927 15.224 25.0167 15.184 25.4327 15.184C26.4407 15.184 27.2727 15.328 27.9287 15.616C28.6007 15.888 29.1367 16.28 29.5367 16.792C29.9367 17.288 30.2167 17.888 30.3767 18.592C30.5527 19.296 30.6407 20.08 30.6407 20.944V28H27.7367V21.4C27.7367 20.728 27.6887 20.16 27.5927 19.696C27.5127 19.216 27.3687 18.832 27.1607 18.544C26.9687 18.24 26.7047 18.024 26.3687 17.896C26.0327 17.752 25.6167 17.68 25.1207 17.68C24.7367 17.68 24.3447 17.72 23.9447 17.8C23.5447 17.88 23.2487 17.952 23.0567 18.016V28H20.1527Z" fill="white"/>
</svg>
